<svg width="340" height="622" fill="none" xmlns="http://www.w3.org/2000/svg"><g clip-path="url(#clip0)" fill-rule="evenodd" clip-rule="evenodd"><path d="M158.352 464.16l162.053-1.077-9.983-338.325-269.757 12.31L67.32 255.599l-48.341-3.051L0 281.817l26.479 68.725 33.638 8.899 18.76-12.53-18.76 271.891 123.169 3.211-24.934-157.853z" fill="#F1CDB5"/><path opacity=".119" d="M115.732 460.753l42.576 3.355 6.97 45.254-49.546-48.609z" fill="#000"/><path d="M256.225 246.116l23.444 86.113 8.728 47.496-48.658.443-15.326-140.631 31.812 6.579z" fill="#ECB199"/><path d="M182.026 284.45c12.395 0 22.442-10.054 22.442-22.457 0-12.402-10.047-22.456-22.442-22.456-12.394 0-22.441 10.054-22.441 22.456 0 12.403 10.047 22.457 22.441 22.457zM311.687 284.45c12.394 0 22.441-10.054 22.441-22.457 0-12.402-10.047-22.456-22.441-22.456-12.395 0-22.442 10.054-22.442 22.456 0 12.403 10.047 22.457 22.442 22.457z" fill="#242537"/><path d="M304.92 161.537s-31.417 44.314-51.979 54.402c-20.561 10.088-35.586 12.807-35.586 12.807l29.952-82.282s-30.794 55.06-67.339 68.671c-36.546 13.611-44.893 16.331-44.893 16.331l19.207-84.641-46.28 89.075 7.816 57.151-41.23 26.53-28.373-90.908-1.145-27.242-24.244-11.287 10.36-33.168L6.23 135.967l38.96-40.288S195.28-48.194 279.06 16.91c83.781 65.104 56.542 118.155 56.542 118.155l-23.109 73.749-7.573-47.277z" fill="#6F4D2E"/></g><defs><clipPath id="clip0"><path fill="#fff" d="M0 0h340v622H0z"/></clipPath></defs></svg>