<?xml version="1.0" encoding="UTF-8"?>
<svg width="42px" height="47px" viewBox="0 0 42 47" version="1.1" xmlns="http://www.w3.org/2000/svg" xmlns:xlink="http://www.w3.org/1999/xlink">
    <!-- Generator: Sketch 55.2 (78181) - https://sketchapp.com -->
    <title>Avatar</title>
    <desc>Created with Sketch.</desc>
    <defs>
        <path d="M21,42.1273649 C32.5979797,42.1273649 42,32.6968331 42,21.0636825 C42,9.43053186 32.5979797,0 21,0 C9.40202025,0 0,9.43053186 0,21.0636825 C0,32.6968331 9.40202025,42.1273649 21,42.1273649 Z" id="path-1"></path>
        <radialGradient cx="15.5710638%" cy="46.7409362%" fx="15.5710638%" fy="46.7409362%" r="100%" gradientTransform="translate(0.155711,0.467409),scale(0.504887,1.000000),rotate(90.000000),translate(-0.155711,-0.467409)" id="radialGradient-3">
            <stop stop-color="#FCF53C" stop-opacity="0.114838089" offset="0%"></stop>
            <stop stop-color="#F8E71C" offset="100%"></stop>
        </radialGradient>
        <radialGradient cx="15.5710638%" cy="46.7409362%" fx="15.5710638%" fy="46.7409362%" r="100%" gradientTransform="translate(0.155711,0.467409),scale(0.350036,1.000000),rotate(90.000000),translate(-0.155711,-0.467409)" id="radialGradient-4">
            <stop stop-color="#FCF53C" stop-opacity="0.114838089" offset="0%"></stop>
            <stop stop-color="#F8E71C" offset="100%"></stop>
        </radialGradient>
        <radialGradient cx="15.5710638%" cy="46.7409362%" fx="15.5710638%" fy="46.7409362%" r="100%" gradientTransform="translate(0.155711,0.467409),scale(0.772314,1.000000),rotate(90.000000),translate(-0.155711,-0.467409)" id="radialGradient-5">
            <stop stop-color="#FCF53C" stop-opacity="0.114838089" offset="0%"></stop>
            <stop stop-color="#F8E71C" offset="100%"></stop>
        </radialGradient>
        <radialGradient cx="15.5710638%" cy="46.7409362%" fx="15.5710638%" fy="46.7409362%" r="100%" gradientTransform="translate(0.155711,0.467409),scale(0.705632,1.000000),rotate(90.000000),translate(-0.155711,-0.467409)" id="radialGradient-6">
            <stop stop-color="#FCF53C" stop-opacity="0.114838089" offset="0%"></stop>
            <stop stop-color="#F8E71C" offset="100%"></stop>
        </radialGradient>
        <radialGradient cx="15.5710638%" cy="46.7409362%" fx="15.5710638%" fy="46.7409362%" r="100%" gradientTransform="translate(0.155711,0.467409),scale(0.888552,1.000000),rotate(90.000000),translate(-0.155711,-0.467409)" id="radialGradient-7">
            <stop stop-color="#FCF53C" stop-opacity="0.114838089" offset="0%"></stop>
            <stop stop-color="#F8E71C" offset="100%"></stop>
        </radialGradient>
        <path d="M21,48 C32.9072592,48 42,38.5735366 42,26.8290766 C42,15.0846166 37.2906446,0.0523084479 25.3833854,0.0523084479 C13.4761262,0.0523084479 -2.84217094e-14,15.0846166 -2.84217094e-14,26.8290766 C-2.84217094e-14,38.5735366 9.09274079,48 21,48 Z" id="path-8"></path>
    </defs>
    <g id="Page-1" stroke="none" stroke-width="1" fill="none" fill-rule="evenodd">
        <g id="Normal-article-page" transform="translate(-113.000000, -36.000000)">
            <g id="Avatar" transform="translate(113.000000, 35.000000)">
                <g id="Bakground-+-Me-Mask" transform="translate(0.000000, 5.818182)">
                    <mask id="mask-2" fill="white">
                        <use xlink:href="#path-1"></use>
                    </mask>
                    <use id="Mask" fill="#D8D8D8" xlink:href="#path-1"></use>
                    <g id="Bakground" mask="url(#mask-2)">
                        <g transform="translate(-7.695906, -11.578866)">
                            <rect id="Rectangle-1" fill="#7DA651" x="7.69590643" y="11.5788664" width="41.9958425" height="42.1231948"></rect>
                            <polygon id="Path-8" fill="url(#radialGradient-3)" opacity="0.103311567" points="5.40063048 47.8564915 54.8144645 24.1980215 57.4129203 33.5670361 54.9782072 38.8547698 5.56341374 50.4583362"></polygon>
                            <path d="M6.43201754,51.8126684 L52.5246254,43.5288517 L55.1515442,51.7799488 C55.1515442,51.7799488 54.6328125,58.5426278 53.8643092,58.5426278 C53.0958059,58.5426278 29.7055464,61.9060037 28.6092379,61.5775252 C27.5129295,61.2490467 3.52462537,56.957655 3.52462537,56.957655 L6.43201754,51.8126684 Z" id="Path-9" fill="url(#radialGradient-4)" opacity="0.103311567"></path>
                            <polygon id="Path-6" fill="url(#radialGradient-5)" opacity="0.103311567" points="0.0412554825 30.8131418 35.3594664 4.92076159 42.9376827 8.85865398 2.72861842 38.0502541"></polygon>
                            <polygon id="Path-7" fill="url(#radialGradient-6)" opacity="0.103311567" points="3.57131762 40.9379136 49.2948648 10.0612573 53.3596491 14.4569024 53.5768001 22.0571374 4.36892361 45.3467106"></polygon>
                            <path d="M3.3778326,8.92280993 C3.3778326,8.59080288 24.6893275,0.0753832447 24.6893275,0.0753832447 L28.0815515,6.34502374 L0.910179094,24.2185514 C0.910179094,24.2185514 3.3778326,9.25481699 3.3778326,8.92280993 Z" id="Path-10" fill="url(#radialGradient-7)" opacity="0.103311567"></path>
                        </g>
                    </g>
                </g>
                <g id="Me">
                    <mask id="mask-9" fill="white">
                        <use xlink:href="#path-8"></use>
                    </mask>
                    <g id="Mask"></g>
                    <g mask="url(#mask-9)">
                        <g transform="translate(9.893333, 1.131631)">
                            <g id="Group-2" opacity="0.116196362" stroke-width="1" fill="none" transform="translate(2.613333, 3.489194)">
                                <polygon id="Path-1" fill="#000000" points="11.8764045 35.1325329 24.0304061 35.0509724 23.2816246 9.4302554 3.04991474 10.3624815 5.04897861 19.3385712 1.4234153 19.1075445 0 21.3240725 1.98591454 26.5284479 4.50876018 27.2023374 5.91573881 26.2535039 4.50876018 46.8433001 13.6585044 46.8433001"></polygon>
                                <path d="M22.7750484,12.2329351 C22.7750484,12.2329351 20.418761,15.5887275 18.8766364,16.3526657 C17.3345119,17.116604 16.2076871,17.3225352 16.2076871,17.3225352 L18.4540315,11.0914563 C18.4540315,11.0914563 16.1444972,15.2610091 13.4035918,16.2917721 C10.6626864,17.3225352 10.0366321,17.5284663 10.0366321,17.5284663 L11.4772145,11.1187662 L8.00615588,17.8643039 L8.59239698,22.1921801 L5.50011217,24.2013007 L3.37211178,17.3169994 L3.28627585,15.2539971 L1.46801531,14.399272 L2.24492173,11.8875021 L0.373333333,10.2965177 L3.29540733,7.24556244 C3.29540733,7.24556244 14.5519669,-3.64959946 20.8355218,1.28057032 C27.1190767,6.2107401 25.0761817,10.228243 25.0761817,10.228243 L23.3430265,15.8131113 L22.7750484,12.2329351 Z" id="Path-3" fill="#000000"></path>
                            </g>
                            <polygon id="Path-1" fill="#F1CDB5" points="11.8764045 35.1500161 24.0304061 35.0684555 23.2816246 9.44773856 3.04991474 10.3799646 5.04897861 19.3560544 1.4234153 19.1250276 0 21.3415557 1.98591454 26.545931 4.50876018 27.2198205 5.91573881 26.2709871 4.50876018 46.8607832 13.7464323 47.1039416"></polygon>
                            <polygon id="Path-11" fill="#000000" opacity="0.118994869" points="8.68 34.891945 11.8731803 35.1459817 12.3959131 38.5730254"></polygon>
                            <polygon id="Path-2" fill="#ECB199" points="19.2170197 18.6378786 20.9753777 25.1590325 21.6299223 28.7558161 17.9806171 28.7893999 16.8311462 18.139658"></polygon>
                            <ellipse id="Oval-1" fill="#242537" cx="13.6519297" cy="19.840251" rx="1.68311462" ry="1.70059294"></ellipse>
                            <ellipse id="Oval-1" fill="#242537" cx="23.376592" cy="19.840251" rx="1.68311462" ry="1.70059294"></ellipse>
                            <path d="M22.8690739,12.2329351 C22.8690739,12.2329351 20.5127864,15.5887275 18.9706619,16.3526657 C17.4285373,17.116604 16.3017126,17.3225352 16.3017126,17.3225352 L18.5480569,11.0914563 C18.5480569,11.0914563 16.2385227,15.2610091 13.4976173,16.2917721 C10.7567119,17.3225352 10.1306575,17.5284663 10.1306575,17.5284663 L11.57124,11.1187662 L8.10018135,17.8643039 L8.68642245,22.1921801 L5.59413764,24.2013007 L3.46613725,17.3169994 L3.38030132,15.2539971 L1.56204078,14.399272 L2.3389472,11.8875021 L0.467358805,10.2965177 L3.38943281,7.24556244 C3.38943281,7.24556244 14.6459924,-3.64959946 20.9295472,1.28057032 C27.2131021,6.2107401 25.1702071,10.228243 25.1702071,10.228243 L23.437052,15.8131113 L22.8690739,12.2329351 Z" id="Path-3" fill="#6F4D2E"></path>
                        </g>
                    </g>
                </g>
            </g>
        </g>
    </g>
</svg>