<svg width="212" height="223" viewBox="0 0 212 223" fill="none" xmlns="http://www.w3.org/2000/svg">
<mask id="mask0" mask-type="alpha" maskUnits="userSpaceOnUse" x="-5" y="0" width="217" height="245">
<path fill-rule="evenodd" clip-rule="evenodd" d="M103.5 245C164.849 245 211.697 196.899 211.697 136.971C211.697 77.0422 187.434 0.33667 126.084 0.33667C64.7352 0.33667 -4.69727 77.0422 -4.69727 136.971C-4.69727 196.899 42.1508 245 103.5 245Z" fill="white"/>
</mask>
<g mask="url(#mask0)">
<g opacity="0.116196">
<path fill-rule="evenodd" clip-rule="evenodd" d="M120.93 202.92L183.551 202.503L179.693 71.7683L75.4542 76.5252L85.7539 122.328L67.074 121.149L59.7402 132.459L69.9722 159.015L82.9705 162.454L90.2196 157.613L82.9705 262.676H130.112L120.93 202.92Z" fill="black"/>
<path fill-rule="evenodd" clip-rule="evenodd" d="M177.083 86.0696C177.083 86.0696 164.943 103.193 156.998 107.091C149.052 110.99 143.246 112.04 143.246 112.04L154.82 80.245C154.82 80.245 142.921 101.521 128.799 106.781C114.677 112.04 111.452 113.091 111.452 113.091L118.874 80.3843L100.99 114.805L104.011 136.889L88.0783 147.141L77.1143 112.012L76.672 101.485L67.3039 97.1238L71.3067 84.307L61.6638 76.1886L76.7191 60.6205C76.7191 60.6205 134.716 5.02558 167.09 30.1828C199.465 55.3401 188.939 75.8402 188.939 75.8402L180.01 104.338L177.083 86.0696Z" fill="black"/>
</g>
<path fill-rule="evenodd" clip-rule="evenodd" d="M107.466 185.205L170.086 184.788L166.228 54.0532L61.9896 58.8101L72.2893 104.613L53.6094 103.434L46.2756 114.744L56.5076 141.3L69.5059 144.739L76.755 139.897L69.5059 244.961L117.101 246.202L107.466 185.205Z" fill="#F1CDB5"/>
<path opacity="0.118995" fill-rule="evenodd" clip-rule="evenodd" d="M90.9971 183.888L107.449 185.184L110.142 202.671L90.9971 183.888Z" fill="black"/>
<path fill-rule="evenodd" clip-rule="evenodd" d="M145.287 100.948L154.346 134.224L157.718 152.577L138.916 152.748L132.994 98.4058L145.287 100.948Z" fill="#ECB199"/>
<path fill-rule="evenodd" clip-rule="evenodd" d="M116.614 115.761C121.403 115.761 125.286 111.876 125.286 107.083C125.286 102.291 121.403 98.4058 116.614 98.4058C111.825 98.4058 107.942 102.291 107.942 107.083C107.942 111.876 111.825 115.761 116.614 115.761Z" fill="#242537"/>
<path fill-rule="evenodd" clip-rule="evenodd" d="M166.718 115.761C171.507 115.761 175.39 111.876 175.39 107.083C175.39 102.291 171.507 98.4058 166.718 98.4058C161.928 98.4058 158.046 102.291 158.046 107.083C158.046 111.876 161.928 115.761 166.718 115.761Z" fill="#242537"/>
<path fill-rule="evenodd" clip-rule="evenodd" d="M164.103 68.2654C164.103 68.2654 151.963 85.389 144.017 89.2872C136.072 93.1854 130.266 94.2362 130.266 94.2362L141.84 62.4408C141.84 62.4408 129.941 83.7168 115.819 88.9765C101.697 94.2362 98.4714 95.287 98.4714 95.287L105.894 62.5801L88.0098 97.0007L91.0303 119.085L75.0981 129.337L64.1341 94.2079L63.6918 83.681L54.3237 79.3196L58.3265 66.5028L48.6836 58.3844L63.7389 42.8163C63.7389 42.8163 121.736 -12.7786 154.11 12.3786C186.484 37.5359 175.959 58.036 175.959 58.036L167.029 86.534L164.103 68.2654Z" fill="#6F4D2E"/>
</g>
</svg>
